<?xml version="1.0" encoding="utf-8"?>
<!-- Generator: Adobe Illustrator 25.4.1, SVG Export Plug-In . SVG Version: 6.00 Build 0)  -->
<svg version="1.1" id="Layer_1" xmlns="http://www.w3.org/2000/svg" xmlns:xlink="http://www.w3.org/1999/xlink" x="0px" y="0px"
	 viewBox="0 0 744 743.8" style="enable-background:new 0 0 744 743.8;" xml:space="preserve">
<style type="text/css">
	.st0{fill:#FF385C;}
</style>
<path class="st0" d="M455.3,119.5C437.9,90.1,406.2,72,372,72s-65.9,18.1-83.3,47.6l-198,338.2C78.5,478.6,72,502.4,72,526.6v8.5
	c0,34.5,13,67.7,36.5,92.9c23.5,25.2,55.6,40.7,90,43.2c34.4,2.5,68.4-8.1,95.3-29.6l78.2-62.3l78.2,62.6
	c26.9,21.6,61,32.1,95.3,29.6c34.4-2.5,66.5-18,90-43.2C659,603,672,569.8,672,535.3v-8.7c0-24.2-6.4-48.1-18.7-69L455.3,119.5z
	 M410.7,455.3c0,11.7-5.3,22.9-14.5,30.2L372,504.9l-24.2-19.4c-9.2-7.3-14.5-18.4-14.5-30.2v-6.2c0-13.8,7.4-26.6,19.4-33.5
	c12-6.9,26.7-6.9,38.7,0s19.4,19.7,19.4,33.5V455.3z M613.9,535.3c0,19.8-7.4,38.9-20.9,53.4c-13.5,14.5-32,23.4-51.7,24.9
	c-19.8,1.5-39.3-4.6-54.8-17l-67.7-54.4l13.9-11.2h0c22.9-18.4,36.2-46.2,36.1-75.6v-6.2c0-34.6-18.4-66.5-48.4-83.8
	c-29.9-17.3-66.8-17.3-96.8,0c-29.9,17.3-48.4,49.2-48.4,83.8v6.2c0,29.4,13.3,57.2,36.3,75.6l14,11.1l-67.7,54.4
	c-15.4,12.5-35.1,18.7-54.9,17.3c-19.8-1.4-38.4-10.3-51.9-24.9c-13.5-14.6-21-33.7-20.9-53.6v-8.7c0-13.9,3.7-27.6,10.7-39.6
	l198-337.8c7-11.7,19.6-18.8,33.2-18.8s26.2,7.1,33.2,18.8l198,337.9c7,12,10.7,25.6,10.7,39.5L613.9,535.3z"/>
</svg>
