<?xml version="1.0" encoding="utf-8"?>
<!-- Generator: Adobe Illustrator 25.4.1, SVG Export Plug-In . SVG Version: 6.00 Build 0)  -->
<svg version="1.1" id="Layer_1" xmlns="http://www.w3.org/2000/svg" xmlns:xlink="http://www.w3.org/1999/xlink" x="0px" y="0px"
	 viewBox="0 0 1320.3 514.5" style="enable-background:new 0 0 1320.3 514.5;" xml:space="preserve">
<style type="text/css">
	.st0{fill:#F87171;}
</style>
<g>
	<path class="st0" d="M326.7,40.6C311.8,15.5,284.7,0,255.5,0s-56.3,15.5-71.2,40.7L15,329.8C4.6,347.6-1,367.9-1,388.6v7.3
		c0,29.5,11.1,57.9,31.2,79.4s47.5,34.8,76.9,36.9c29.4,2.1,58.5-6.9,81.5-25.3l66.9-53.3l66.9,53.5c23,18.5,52.1,27.4,81.5,25.3
		c29.4-2.1,56.8-15.4,76.9-36.9c20.1-21.6,31.2-50,31.2-79.5v-7.4c0-20.7-5.5-41.1-16-59L326.7,40.6z M288.5,327.7
		c0,10-4.5,19.6-12.4,25.8l-20.7,16.6l-20.7-16.6c-7.9-6.2-12.4-15.7-12.4-25.8v-5.3c0-11.8,6.3-22.7,16.6-28.6s22.8-5.9,33.1,0
		c10.3,5.9,16.6,16.8,16.6,28.6L288.5,327.7L288.5,327.7z M462.3,396.1c0,16.9-6.3,33.3-17.9,45.7c-11.5,12.4-27.4,20-44.2,21.3
		c-16.9,1.3-33.6-3.9-46.8-14.5L295.5,402l11.9-9.6l0,0c19.6-15.7,30.9-39.5,30.9-64.6v-5.3c0-29.6-15.7-56.8-41.4-71.6
		c-25.6-14.8-57.1-14.8-82.8,0c-25.6,14.8-41.4,42.1-41.4,71.6v5.3c0,25.1,11.4,48.9,31,64.6l12,9.5l-57.9,46.5
		c-13.2,10.7-30,16-46.9,14.8s-32.8-8.8-44.4-21.3c-11.5-12.5-18-28.8-17.9-45.8v-7.4c0-11.9,3.2-23.6,9.1-33.9L227.1,66
		c6-10,16.8-16.1,28.4-16.1c11.6,0,22.4,6.1,28.4,16.1l169.3,288.9c6,10.3,9.1,21.9,9.1,33.8L462.3,396.1L462.3,396.1z"/>
	<g>
		<path class="st0" d="M653.2,292.5c0-2.5,0.3-5.6,0.9-9.2c0.6-3.6,0.9-8,0.9-13.2c-2.9,2.1-6.1,4.6-9.6,7.5s-7.2,5.7-10.9,8.3
			c-3.8,2.6-7.5,4.9-11.3,6.7c-3.7,1.8-7.2,2.7-10.5,2.7c-2.6,0-5.1-0.4-7.5-1.2s-4.4-1.8-6.1-3.2c-4.7-3.7-8-7.4-10.1-11.1
			s-3.1-8-3.1-12.9c0-2.2,0.2-4.5,0.6-6.9s1-5.1,1.8-8.2c3.3-13.9,9.1-26.7,17.2-38.6c8.1-11.8,18.2-21.9,30.3-30.3
			c4.7-3.3,9.3-5.3,14-6.3c4.7-0.9,9.3-1.4,13.8-1.4c2,0,4.3,0.1,6.8,0.4s4.8,0.5,6.8,0.8c2-0.4,3.7-0.7,4.9-0.9
			c1.3-0.2,2.6-0.3,4-0.3c2.6,0,4.8,0.4,6.6,1.1c1.8,0.7,3.2,1.6,4.2,2.8c1.1,1.2,1.8,2.5,2.3,4.1c0.5,1.5,0.7,3.1,0.7,4.8
			c0,2.3-0.4,4.5-1.1,6.5c-0.7,2.1-1.4,4.2-2.1,6.3l-17.4,69.5c-0.4,3.8-0.7,7.3-0.9,10.4s-0.8,6.1-1.6,8.8c-0.3,0.8-0.6,1.8-1,3
			s-1,2.3-1.9,3.4s-2,2-3.3,2.8s-3,1.2-5.1,1.2c-2.7,0-4.9-0.2-6.5-0.5c-1.6-0.4-2.9-0.9-3.8-1.5c-0.9-0.7-1.5-1.4-1.7-2.4
			C653.3,294.8,653.2,293.7,653.2,292.5z M609.4,252.7c-0.4,1.2-0.7,3-1.1,5.3c-0.4,2.3-0.6,4.6-0.6,6.9c0,2.4,0.3,4.5,1.1,6.4
			c0.7,1.9,2.2,2.8,4.6,2.8c3.7,0,7.1-0.8,10.3-2.4s6.2-3.6,9-5.9c3.8-3.1,7.6-6.5,11.5-10.3c3.9-3.8,7.6-7.8,11.1-12.1
			c3.5-4.2,6.5-8.5,9.2-13c2.7-4.4,4.6-8.9,5.9-13.2c0.7-2.5,1.3-5.5,1.8-8.8s0.7-6.3,0.7-9c0-1.1-0.3-2.3-0.8-3.4
			c-0.5-1.1-1.5-1.6-3-1.6c-4.3,0-8.6,0.8-13,2.5s-8.5,3.9-12.6,6.7c-4,2.8-7.9,6.1-11.5,10c-3.6,3.8-7,7.9-10,12.3
			c-3,4.3-5.6,8.8-7.7,13.4C612.2,243.8,610.6,248.3,609.4,252.7z"/>
		<path class="st0" d="M719.8,274c1.3-5.1,2.9-11,4.7-17.8c1.8-6.8,3.8-13.9,5.9-21.5c2.1-7.6,4.2-15.3,6.3-23.2s4.1-15.6,5.9-23.1
			c0.1-0.4,0.4-0.9,0.9-1.8c0.5-0.8,1.3-1.7,2.2-2.5c1-0.8,2.2-1.6,3.7-2.2c1.5-0.6,3.2-0.9,5.3-0.9c1.5,0,2.9,0.2,4.4,0.5
			c1.4,0.3,2.7,0.8,3.8,1.4c1.1,0.6,2,1.4,2.6,2.4c0.7,1,1,2.2,1,3.5c0,0.3,0,0.5,0,0.9c0,0.3,0,0.6-0.1,0.9l-3.7,14
			c-4.1,15.6-8.3,31.3-12.6,47.1c-4.3,15.7-8.4,31.5-12.5,47.3c-0.2,0.5-0.4,1.2-0.8,2c-0.4,0.8-0.8,1.6-1.5,2.4
			c-0.6,0.8-1.4,1.5-2.2,2c-0.9,0.5-1.9,0.8-3.2,0.8c-2.3,0-4.3-0.5-6.1-1.4s-3.3-2.1-4.5-3.5s-2.2-2.9-2.8-4.6s-0.9-3.3-0.9-4.7
			c0-0.4,0-0.8,0-1.2c0-0.4,0.1-0.7,0.3-1.2L719.8,274z M754.2,137.6c0.4-1.8,1.2-4.1,2.4-6.7c1.1-2.6,3.2-5,6.1-7.1
			c1.4-0.8,3.1-1.5,5.1-2.2s3.5-1,4.4-1s1.8,0.3,2.7,0.9s1.7,1.3,2.4,2c0.9,0.9,1.7,1.8,2.5,2.9c2.2,0.2,3.6,1,4.3,2.4
			c0.7,1.4,1,3.1,1,5c0,1.4-0.1,2.7-0.4,3.8c-0.3,1.1-0.5,2.1-0.7,2.8c-0.5,1.8-1.5,3.5-3,5.1c-1.5,1.5-3.2,2.9-5.1,4
			c-1.9,1.1-4,2-6.1,2.6s-4,0.9-5.5,0.9c-2,0-3.6-0.4-4.7-1.1c-1.1-0.7-2.5-2.2-4.2-4.5c-1-1.3-1.5-2.4-1.6-3.1
			c-0.1-0.7-0.2-1.4-0.2-1.9c0-1,0.1-1.8,0.2-2.6C753.8,139,754,138.3,754.2,137.6z"/>
		<path class="st0" d="M791,284.6c1.1-6.2,2.5-12.9,4-20.3s3-14.9,4.6-22.4c1.6-7.6,3.1-15,4.6-22.3s2.8-14,3.8-20
			c-0.1-0.9-0.1-1.6-0.1-2.3s0-1.4,0-2.2c0-2.7,0.2-5.4,0.5-8.2c0.3-2.7,0.8-5.2,1.5-7.5c1-3.3,2-5.6,3.2-6.8s3.1-1.8,5.7-1.8
			c2.5,0,4.6,0.5,6.1,1.5s2.7,2.4,3.6,4c0.9,1.7,1.5,3.6,1.7,5.7c0.3,2.2,0.4,4.4,0.4,6.7c0,1.2,0,2.6-0.1,4.1s-0.1,2.7-0.1,3.6
			c2.5-2.5,5.1-5.2,7.8-7.8c2.8-2.7,5.7-5.1,8.8-7.3s6.4-3.9,9.9-5.3c3.5-1.4,7.1-2.1,10.9-2.1c1.5,0,3,0.1,4.4,0.4s2.9,0.6,4.4,1.1
			c1.8,0.4,3.6,1,5.5,1.8c1.9,0.7,3.7,1.8,5.5,3.1c2.9,2.2,5.3,4.9,7.3,8.2s3,6.7,3,10.1c0,1.3-0.3,2.7-0.8,4.3
			c-0.5,1.5-1.3,2.9-2.2,4.2s-2,2.3-3.2,3.2c-1.2,0.8-2.6,1.3-4.1,1.3s-3.3-0.4-5.5-1.1c-2.2-0.7-3.9-1.7-5.3-3
			c-0.6-0.5-1.3-1.3-1.9-2.2c-0.7-1-1.3-1.9-1.8-2.9c-0.6-1-1.1-1.9-1.6-2.7s-0.9-1.4-1.1-1.6c-0.4-0.1-0.9-0.2-1.5-0.2
			c-0.5,0-1-0.1-1.5-0.1c-4.5,0-8.7,1.1-12.8,3.4c-4,2.3-7.8,5.1-11.3,8.4c-3.5,3.3-6.7,6.8-9.7,10.5c-2.9,3.7-5.5,7.1-7.7,10.1
			c-1.8,7.1-3.7,14.7-5.9,22.7c-2.2,8-4.3,16.5-6.4,25.2v3.3c0,2.6-0.1,5.3-0.3,8s-0.7,5.1-1.6,7.3c-1,1.3-2.4,2.4-4.2,3.4
			c-1.8,0.9-3.9,1.4-6.3,1.4c-3.7,0-6.5-1.2-8.3-3.6s-2.8-5.3-2.8-8.5C790.3,287.7,790.5,286.2,791,284.6z"/>
		<path class="st0" d="M910.7,254.9c1.8-7.1,3.8-14.9,6.1-23.3c2.3-8.4,4.7-17,7.1-25.7c2.5-8.7,4.9-17.4,7.3-26
			c2.4-8.6,4.6-16.7,6.7-24.4c2-7.6,3.8-14.5,5.2-20.7c1.5-6.2,2.4-11.1,3-14.9l1.5-10.7c0.3-0.8,0.5-1.7,0.9-2.6
			c0.3-1,0.8-1.9,1.4-2.7c0.6-0.8,1.4-1.6,2.4-2.2s2.3-0.9,3.8-0.9c2.7,0,5,0.5,6.9,1.5c1.8,1,3.3,2.3,4.4,3.9
			c1.1,1.6,1.9,3.5,2.3,5.6c0.4,2.1,0.7,4.3,0.7,6.6c0,2.3-0.2,4.6-0.5,6.9c-0.4,2.3-0.7,4.4-1.2,6.3c-2.9,12-6.2,24.2-10,36.5
			c-3.7,12.3-7.1,24.6-10.1,37c3.4-3.3,7.1-6.3,11.1-9.3c4-2.9,8.1-5.5,12.5-7.8c4.4-2.2,8.8-4,13.4-5.3c4.6-1.3,9.1-2,13.7-2
			c4.8,0,9,0.7,12.5,2.1c3.5,1.4,6.4,3.3,8.7,5.7s4,5.3,5.1,8.6s1.6,6.9,1.6,10.8c0,1.8-0.1,3.8-0.3,5.7c-0.2,2-0.6,3.9-1,5.7
			c-2.3,9.1-5.5,17.3-9.7,24.5s-8.9,13.6-14.2,19.3s-11.1,10.7-17.3,15s-12.5,8.2-18.8,11.7c-4.1,2.2-8.1,3.9-11.9,5.1
			c-3.8,1.2-7.6,1.8-11.3,1.8c-3.6,0-6.4-0.4-8.2-1.1c-1.9-0.7-3.6-1.9-5.1-3.4c-0.4,0.9-1,1.8-1.6,2.8c-0.7,1-1.5,1.9-2.4,2.7
			c-0.9,0.8-2,1.5-3.3,2s-2.7,0.8-4.3,0.8c-5,0-8.6-1.3-10.7-3.8c-2.1-2.5-3.2-5.9-3.2-10.1c0-1.5,0.1-3,0.3-4.5s0.5-3.1,1-4.5
			L910.7,254.9z M994.5,201.3c-4.1,0-8.6,1.1-13.5,3.2s-9.8,4.7-14.7,7.8s-9.7,6.5-14.2,10c-4.6,3.6-8.6,6.7-12.1,9.6
			c-1.1,3.6-2.1,7.1-3.2,10.4c-1.1,3.3-2.1,6.7-3.1,10.2c-1,3.4-1.9,6.9-2.8,10.5c-0.8,3.6-1.6,7.4-2.2,11.5l-0.8,5.1l0.8,2.4
			c1.8-1.1,3.5-1.8,5.1-2.4c1.5-0.5,3-1,4.5-1.4s3-0.8,4.5-1.3c1.6-0.4,3.3-1.1,5.3-1.8c13.8-5.5,25.4-13,34.7-22.3
			c9.4-9.3,15.8-20.8,19.2-34.4c0.4-1.9,0.8-3.6,1.1-5.1s0.4-2.9,0.4-4.1c0-2.6-0.7-4.6-2.1-5.9C1000,201.9,997.7,201.3,994.5,201.3
			z"/>
		<path class="st0" d="M1141.1,189.9c-3.1,0-6.4,0.7-9.9,2.2s-7.2,3.4-10.9,5.9c-3.8,2.5-7.6,5.3-11.5,8.4
			c-3.9,3.1-7.8,6.4-11.5,9.7c-1.9,1.7-3.8,3.2-5.5,4.5c-1.8,1.4-3.5,2.4-5.3,3.1c-1.2,2-2.5,4.7-3.9,8s-2.7,6.9-4,10.8
			c-1.3,3.9-2.6,7.9-3.8,12c-1.2,4.1-2.2,7.9-3,11.4c-0.4,1.8-0.8,3.6-1.1,5.4c-0.3,1.8-0.6,3.6-0.9,5.6c-0.4,2-0.8,4.1-1.3,6.4
			s-1.1,4.8-1.8,7.6c-0.4,1.7-1.1,3-2.1,4s-2,1.8-3,2.3s-2.1,0.9-3,1c-1,0.1-1.7,0.2-2.2,0.2c-3.3,0-6.1-0.8-8.2-2.4
			s-3.2-4.7-3.2-9.2c0-1.2,0-2.5,0.1-3.9s0.4-2.9,0.8-4.5c1.9-8.3,3.8-15.9,5.6-22.5c1.8-6.7,3.6-12.9,5.5-18.6
			c1.8-5.7,3.7-11.1,5.6-16.2c1.9-5.1,3.8-10.2,5.8-15.3s4-10.5,6.2-16s4.5-11.6,6.9-18.3c0.5-1.5,1.9-2.7,4.2-3.8
			c2.2-1,4.6-1.5,7.2-1.5c3.3,0,6.1,0.7,8.2,2.2c2.2,1.5,3.2,3.6,3.2,6.5c0,0.3-0.1,0.7-0.3,1.5c-0.2,0.7-0.4,1.5-0.8,2.2l-5.8,13.7
			c3.7-2.9,7.5-5.8,11.5-8.7s8.1-5.5,12.3-7.8c4.2-2.3,8.5-4.2,12.7-5.7c4.3-1.4,8.5-2.2,12.6-2.2c8.4,0,15,2.3,19.8,6.8
			c4.7,4.5,7.1,11.5,7.1,21c0,5.5-0.9,11.6-2.8,18.6c-1.9,6.9-4.3,14.4-7.1,22.3c-2.9,8-5.9,16.3-9.2,25c-3.3,8.7-6.4,17.6-9.2,26.7
			c-0.8,2.5-1.6,4.5-2.4,6.2s-1.8,3-3,4c-1.1,1-2.5,1.7-4,2.2c-1.5,0.4-3.4,0.7-5.6,0.7c-3.4,0-5.8-0.6-7.1-1.9
			c-1.3-1.3-2-3.3-2-6.1c0-2.5,0.4-5.5,1.1-9c0.7-3.6,1.8-7.5,3.2-11.7c1.4-4.3,2.9-8.8,4.7-13.6c1.8-4.8,3.8-9.8,5.9-14.8
			c1.7-4,3.3-8.1,4.9-12.1s3.1-8,4.3-11.7c1.3-3.8,2.3-7.4,3.1-10.8s1.2-6.6,1.2-9.5c0-2.7-0.6-5.1-1.8-7.2
			C1146.6,191,1144.4,189.9,1141.1,189.9z"/>
		<path class="st0" d="M1204,254.9c1.8-7.1,3.8-14.9,6.1-23.3c2.3-8.4,4.7-17,7.1-25.7c2.5-8.7,4.9-17.4,7.3-26s4.6-16.7,6.7-24.4
			c2-7.6,3.8-14.5,5.2-20.7c1.5-6.2,2.4-11.1,3-14.9l1.5-10.7c0.3-0.8,0.5-1.7,0.9-2.6c0.3-1,0.8-1.9,1.4-2.7
			c0.6-0.8,1.4-1.6,2.4-2.2s2.3-0.9,3.8-0.9c2.7,0,5,0.5,6.9,1.5c1.8,1,3.3,2.3,4.4,3.9s1.9,3.5,2.3,5.6s0.7,4.3,0.7,6.6
			c0,2.3-0.2,4.6-0.5,6.9c-0.4,2.3-0.7,4.4-1.2,6.3c-2.9,12-6.2,24.2-10,36.5c-3.7,12.3-7.1,24.6-10.1,37c3.4-3.3,7.1-6.3,11.1-9.3
			c4-2.9,8.1-5.5,12.5-7.8c4.3-2.2,8.8-4,13.4-5.3s9.1-2,13.7-2c4.8,0,9,0.7,12.5,2.1c3.5,1.4,6.4,3.3,8.7,5.7
			c2.3,2.4,4,5.3,5.1,8.6s1.6,6.9,1.6,10.8c0,1.8-0.1,3.8-0.3,5.7c-0.2,2-0.5,3.9-1,5.7c-2.3,9.1-5.5,17.3-9.7,24.5
			s-8.9,13.6-14.2,19.3c-5.3,5.7-11.1,10.7-17.3,15c-6.2,4.3-12.5,8.2-18.8,11.7c-4.1,2.2-8.1,3.9-11.9,5.1s-7.6,1.8-11.3,1.8
			c-3.6,0-6.4-0.4-8.2-1.1c-1.9-0.7-3.6-1.9-5.1-3.4c-0.4,0.9-1,1.8-1.6,2.8c-0.7,1-1.4,1.9-2.4,2.7c-0.9,0.8-2,1.5-3.3,2
			s-2.7,0.8-4.3,0.8c-5,0-8.6-1.3-10.7-3.8s-3.2-5.9-3.2-10.1c0-1.5,0.1-3,0.3-4.5c0.2-1.5,0.5-3.1,1-4.5L1204,254.9z M1287.9,201.3
			c-4.1,0-8.6,1.1-13.5,3.2c-4.9,2.1-9.8,4.7-14.7,7.8c-4.9,3.1-9.7,6.5-14.2,10c-4.6,3.6-8.6,6.7-12.1,9.6
			c-1.1,3.6-2.1,7.1-3.2,10.4c-1.1,3.3-2.1,6.7-3.1,10.2c-1,3.4-1.9,6.9-2.8,10.5c-0.8,3.6-1.6,7.4-2.2,11.5l-0.8,5.1l0.8,2.4
			c1.8-1.1,3.5-1.8,5.1-2.4c1.5-0.5,3-1,4.5-1.4s3-0.8,4.5-1.3c1.6-0.4,3.3-1.1,5.3-1.8c13.8-5.5,25.4-13,34.7-22.3
			c9.4-9.3,15.8-20.8,19.2-34.4c0.4-1.9,0.8-3.6,1.1-5.1c0.3-1.5,0.4-2.9,0.4-4.1c0-2.6-0.7-4.6-2.1-5.9
			C1293.3,201.9,1291,201.3,1287.9,201.3z"/>
	</g>
	<g>
		<path class="st0" d="M910.6,472.7c1.2-4.7,2.9-9.6,5.2-14.8s5.1-10.1,8.3-14.9s6.9-9.2,11.1-13.3c4.1-4.1,8.6-7.4,13.5-10
			c1.6-0.9,3.3-1.5,5.2-1.9s3.8-0.6,5.8-0.6s3.9,0.2,5.6,0.6s3.2,1,4.5,1.8c1.3,0.9,2.2,2,3,3.3c0.7,1.3,1.1,3,1.1,5
			c0,1.5-0.2,3-0.6,4.5c-0.4,1.5-1.1,2.8-1.9,4c-0.9,1.2-1.9,2.2-3.2,2.9s-2.8,1.1-4.5,1.1c-1.3,0-2.6-0.2-3.7-0.7
			c-1.1-0.5-2.2-1-3.3-1.7c-0.6-0.4-1.1-0.7-1.6-1s-1.1-0.5-1.7-0.8c-2.4,1.1-4.8,2.6-6.9,4.4c-2.2,1.8-4.2,3.8-6.1,6
			c-1.9,2.2-3.6,4.6-5.1,7.1c-1.6,2.5-3,5-4.2,7.5c-1.3,2.5-2.3,5-3.2,7.4s-1.6,4.6-2.2,6.7c-0.4,1.5-0.8,3.1-1.1,5
			s-0.5,3.7-0.5,5.5c0,1.2,0.1,2.4,0.3,3.5s0.6,2.1,1.1,2.9c0.6,0.9,1.3,1.5,2.2,2s2,0.7,3.4,0.7c2.1,0,4.3-0.3,6.4-0.8
			s4.2-1.3,6.2-2.1c2-0.9,4-1.9,5.9-3s3.8-2.3,5.6-3.4c1.2-0.7,2.3-1.5,3.5-2.3s2.3-1.5,3.3-2.1s2-1.1,2.9-1.5s1.7-0.6,2.3-0.6
			c0.9,0,1.8,0.2,2.6,0.7s1.2,1.2,1.2,2.3c0,0.8-0.2,1.7-0.6,2.7c-0.9,2.4-2,4.5-3.5,6.4s-3.1,3.6-4.9,5.1c-1.8,1.5-3.7,2.8-5.8,4
			s-4.1,2.2-6.1,3.2c-3.8,2-7.6,3.5-11.5,4.5s-7.1,1.5-9.8,1.5c-0.9,0-1.9-0.1-3-0.3c-1.2-0.2-2.2-0.5-3-0.8c-5-2.1-8.6-5-10.8-8.6
			c-2.3-3.6-3.4-7.9-3.4-12.9c0-2.1,0.2-4.4,0.5-6.7C909.4,477.7,909.9,475.2,910.6,472.7z"/>
		<path class="st0" d="M1018.2,382.7c0.3-2.4,0.8-4.7,1.5-6.8c0.7-2.1,1.6-3.8,2.7-5.2c1.1-1.4,2.6-2.1,4.4-2.1c1,0,2.1,0.2,3.3,0.6
			s2.3,0.9,3.4,1.5s2,1.4,2.7,2.3s1.1,1.9,1.1,3c0,0.5-0.1,1.1-0.3,1.7s-0.3,1.3-0.5,1.9l-22.9,92c-0.9,3.7-1.7,7.2-2.3,10.5
			s-1.1,6.1-1.4,8.2v2.2c0,1.8-0.1,3.8-0.4,6c-0.2,2.2-0.7,4.2-1.4,6.1s-1.6,3.4-2.8,4.7s-2.7,1.9-4.6,1.9c-1.7,0-3.1-0.4-4.3-1.1
			s-2.2-1.6-3-2.7s-1.4-2.3-1.7-3.5c-0.4-1.3-0.6-2.4-0.6-3.5c0-1,0.1-2.2,0.3-3.6s0.4-2.9,0.7-4.5s0.6-3.1,0.9-4.7
			c0.3-1.6,0.6-2.9,0.9-4.1l23.7-94C1017.6,387.4,1017.9,385.2,1018.2,382.7z"/>
		<path class="st0" d="M1038.5,473.4c0.9-3.7,2.3-7.7,4.3-11.9c1.9-4.2,4.5-8.4,7.6-12.7c3.1-4.3,6.9-8.5,11.2-12.6
			c4.4-4.1,9.4-7.9,15.2-11.5c0.9-0.6,2.3-1.1,4.2-1.8c1.9-0.6,3.9-1,5.9-1.1c2.4-2.6,5.6-3.9,9.6-3.9c4.8,0,8.8,1.2,12.1,3.6
			c3.3,2.4,6,5.7,8.1,9.9c0.7,1.3,1.3,2.7,1.9,3.9c0.6,1.3,1.1,2.6,1.5,4.1c0.4,1.4,0.7,3,1,4.6c0.2,1.7,0.4,3.5,0.4,5.6
			c0,4.8-0.8,9.8-2.3,14.8s-3.7,9.9-6.5,14.7c-2.8,4.8-6.2,9.3-10.2,13.7c-4,4.4-8.5,8.3-13.4,11.8c-3.3,2.4-7,4.2-11,5.6
			c-4,1.3-8.5,2-13.4,2c-4.7,0-8.8-0.6-12.3-1.9s-6.3-3-8.6-5.4c-2.3-2.3-4-5.1-5.1-8.4c-1.1-3.2-1.7-6.9-1.7-10.8
			C1036.8,481.9,1037.4,477.8,1038.5,473.4z M1053.7,474.6c-0.4,1.4-0.6,2.7-0.8,4c-0.2,1.3-0.2,2.5-0.2,3.6c0,2,0.3,3.9,0.8,5.6
			s1.4,3.2,2.5,4.5c1.2,1.3,2.6,2.2,4.4,2.9c1.7,0.7,3.9,1.1,6.4,1.1c4.6,0,9-1.2,13-3.5c4-2.4,7.6-5.3,10.7-8.9
			c3.1-3.5,5.7-7.4,7.8-11.4c2.1-4.1,3.6-7.8,4.5-11.2c0.6-2.1,1-4.2,1.4-6.1s0.6-3.6,0.6-5.2s-0.3-3.1-0.9-4.5s-1.3-2.9-2.2-4.6
			c-0.6-1-1.1-2.1-1.7-3.3c-0.6-1.1-1-2.2-1.5-3.4c-0.5,0.9-1,1.6-1.6,2.2s-1.4,1.2-2.5,1.7s-2.6,1-4.5,1.4s-4.4,0.8-7.4,1.1
			c-2,0.7-4.1,1.7-6.2,3.1s-4.1,3.1-6.1,5s-3.9,3.9-5.7,6.2c-1.8,2.2-3.4,4.5-4.9,6.7c-1.4,2.3-2.7,4.5-3.8,6.7
			C1054.9,470.7,1054.1,472.8,1053.7,474.6z"/>
		<path class="st0" d="M1202.1,433.2c-2.1,0-4.4,0.5-6.9,1.5c-2.4,1-5,2.4-7.6,4.1s-5.3,3.7-8,5.8c-2.7,2.2-5.4,4.4-8,6.7
			c-1.3,1.2-2.6,2.2-3.9,3.2c-1.2,0.9-2.4,1.7-3.7,2.2c-0.9,1.4-1.8,3.3-2.7,5.6c-1,2.3-1.9,4.8-2.8,7.5s-1.8,5.5-2.6,8.4
			s-1.5,5.5-2.1,7.9c-0.3,1.3-0.6,2.5-0.7,3.8c-0.2,1.2-0.4,2.5-0.6,3.9s-0.5,2.9-0.9,4.5c-0.3,1.6-0.8,3.4-1.2,5.3
			c-0.3,1.2-0.8,2.1-1.5,2.8c-0.7,0.7-1.4,1.2-2.1,1.6s-1.4,0.6-2.1,0.7s-1.2,0.1-1.6,0.1c-2.3,0-4.2-0.6-5.7-1.7s-2.2-3.2-2.2-6.4
			c0-0.9,0-1.8,0.1-2.7c0.1-0.9,0.2-2,0.6-3.2c1.3-5.8,2.6-11,3.9-15.7s2.5-9,3.8-12.9c1.3-4,2.6-7.7,3.9-11.2s2.7-7.1,4-10.6
			s2.8-7.3,4.3-11.1c1.5-3.8,3.1-8.1,4.8-12.7c0.4-1,1.3-1.9,2.9-2.6s3.2-1.1,5-1.1c2.3,0,4.2,0.5,5.7,1.6c1.5,1,2.2,2.5,2.2,4.5
			c0,0.2-0.1,0.5-0.2,1s-0.3,1-0.6,1.6l-4,9.5c2.6-2,5.2-4,8-6.1c2.8-2,5.6-3.8,8.6-5.5c2.9-1.6,5.9-2.9,8.9-3.9s5.9-1.5,8.8-1.5
			c5.9,0,10.5,1.6,13.8,4.7c3.3,3.2,5,8,5,14.6c0,3.8-0.7,8.1-2,12.9s-3,10-5,15.6c-2,5.5-4.1,11.4-6.4,17.4
			c-2.3,6.1-4.4,12.3-6.4,18.6c-0.6,1.7-1.1,3.2-1.7,4.3c-0.6,1.2-1.3,2.1-2.1,2.8c-0.8,0.7-1.7,1.2-2.8,1.5
			c-1.1,0.3-2.4,0.5-3.9,0.5c-2.4,0-4-0.4-5-1.3c-0.9-0.9-1.4-2.3-1.4-4.3c0-1.7,0.3-3.8,0.8-6.3s1.3-5.2,2.2-8.2
			c0.9-3,2-6.1,3.3-9.5s2.6-6.8,4.1-10.3c1.2-2.8,2.3-5.6,3.4-8.4s2.1-5.5,3-8.2c0.9-2.6,1.6-5.1,2.2-7.5s0.8-4.6,0.8-6.6
			c0-1.9-0.4-3.6-1.2-5C1205.9,433.9,1204.4,433.2,1202.1,433.2z"/>
		<path class="st0" d="M1239.5,473.1c0-2.6,0.7-4.9,2.1-6.7c1.4-1.8,3.3-3.1,5.6-3.7c0.7-1.3,1.7-3.2,3.1-5.5s3.2-4.8,5.2-7.5
			c2.1-2.7,4.5-5.4,7.1-8.1c2.7-2.7,5.6-5.2,8.8-7.4c3.2-2.2,6.7-4.1,10.4-5.5c3.7-1.4,7.6-2.1,11.8-2.1c3.5,0,6.6,0.4,9.3,1.3
			c2.6,0.9,4.8,2.1,6.5,3.6s3,3.4,3.9,5.5s1.3,4.4,1.3,6.8c0,2.1-0.3,4.1-0.8,6c-0.9,3.4-2.4,6.4-4.8,9c-2.3,2.6-5.1,4.8-8.2,6.7
			c-3.2,1.9-6.6,3.5-10.3,4.8c-3.7,1.3-7.4,2.4-11.1,3.2c-3.7,0.9-7.3,1.5-10.7,2c-3.4,0.5-6.4,0.8-8.9,1.1c-0.6,1.1-1,2.5-1.4,4.2
			s-0.6,3.3-0.6,4.9c0,3.5,1.4,6.3,4.2,8.3c2.8,2,6.7,2.9,11.7,2.9c2.9,0,5.6-0.3,8.3-1c2.6-0.6,5.1-1.5,7.5-2.5s4.6-2.1,6.7-3.3
			c2.1-1.2,4-2.4,5.7-3.5c2.2-1.5,4.3-2.7,6.3-3.7s3.7-1.5,5.3-1.5c1.5,0,2.5,0.4,2.9,1.1c0.4,0.8,0.6,1.6,0.6,2.4c0,0.5,0,1,0,1.4
			c0,0.5-0.1,0.8-0.1,1.1c-0.3,1.6-0.9,3.2-1.8,4.8c-0.9,1.6-2.1,3-3.5,4.1c-6.4,5-12.9,8.6-19.6,10.7s-13.8,3.2-21.4,3.2
			c-1.5,0-3.2-0.1-5.2-0.3c-2-0.2-4.1-0.6-6.2-1.1c-2.1-0.6-4.3-1.3-6.3-2.4c-2.1-1-3.9-2.4-5.6-4.1c-1.6-1.7-2.9-3.8-3.9-6.3
			s-1.5-5.5-1.5-9.1c0-2.9,0.4-6.1,1.2-9.6c-0.8-0.1-1.5-0.5-2.2-1.2C1239.8,475.5,1239.5,474.5,1239.5,473.1z M1297,447.7
			c0.1-0.3,0.2-0.6,0.2-0.8c0-0.2,0-0.5,0-0.8c0-1.7-0.6-2.9-1.8-3.7c-1.2-0.8-2.7-1.2-4.4-1.2c-2.7,0-5.3,0.7-7.9,2.1
			s-5,3.2-7.3,5.3s-4.3,4.4-6.1,6.8c-1.8,2.4-3.2,4.6-4.1,6.6c4.4-0.4,8.4-1,12.1-1.8s6.9-1.9,9.6-3.1c2.7-1.3,4.9-2.7,6.6-4.2
			C1295.4,451.1,1296.5,449.5,1297,447.7z"/>
	</g>
</g>
</svg>
